<?xml version="1.0" encoding="utf-8"?>
<!-- Generator: Adobe Illustrator 25.2.0, SVG Export Plug-In . SVG Version: 6.00 Build 0)  -->
<svg version="1.1" id="Capa_1" xmlns="http://www.w3.org/2000/svg" xmlns:xlink="http://www.w3.org/1999/xlink" x="0px" y="0px"
	 viewBox="0 0 1238.4 256" style="enable-background:new 0 0 1238.4 256;" xml:space="preserve">
<style type="text/css">
	.st0{fill-rule:evenodd;clip-rule:evenodd;fill:#5B72B3;}
	.st1{fill:#5B72B3;}
</style>
<g>
	<polygon class="st0" points="63.2,136.8 10,10.1 47.5,10.1 82,98.9 83.1,98.9 117.7,10.1 155.2,10.1 102,136.8 	"/>
	<path class="st0" d="M230.2,35.1H170V9.9h68.8c7.2-0.1,13.6,0.6,19.3,2.3c5.7,1.6,11.2,4.8,16.6,9.5c5.5,5.1,9.1,10.7,10.8,16.9
		c1.7,6.2,2.5,13.1,2.3,20.8v77.2h-87.5c-12.7-0.2-22.5-3.8-29.2-10.7c-6.7-6.9-10.1-16-10.1-27.2c0-11.3,3.4-20.5,10.1-27.4
		c6.7-6.9,16.4-10.5,29.2-10.7h54.5v-1.1c0.1-3.4,0-6.5-0.4-9.1c-0.4-2.6-1.6-5.4-3.7-8.1c-2.5-3.3-5.5-5.3-9.1-6.1
		C238.2,35.3,234.4,35,230.2,35.1 M213.4,111.2h41.6V86h-42.2c-4.2-0.2-7.9,0.5-11.3,2.2c-3.3,1.6-5.1,5.1-5.3,10.6
		c0.2,5.3,2,8.7,5.5,10.3C205,110.7,209,111.4,213.4,111.2"/>
	<polygon class="st0" points="438.6,136.8 385.5,10.1 423,10.1 457.5,98.9 458.6,98.9 493.1,10.1 530.6,10.1 477.5,136.8 	"/>
	<path class="st0" d="M562.3,91.4V36.7h-22.7V10.1h87.5v26.6h-31.6v45.9c0,5.3,0.3,9.9,1,13.8c0.7,3.9,2.1,7,4.2,9.2
		c3.7,3.4,8.3,5,13.8,4.7h12.5v26.6H603c-1.8,0-4.4-0.1-7.8-0.5c-3.3-0.4-6.8-1.2-10.5-2.4s-7-3-9.9-5.5
		c-5.6-5.1-9.1-10.6-10.6-16.6C562.8,105.8,562.1,99,562.3,91.4"/>
	<path class="st0" d="M704.1,36.5h-15.9v100.2h-33V10h58.4c4.1-0.1,8.5,0.5,13.2,1.8c4.6,1.3,9,3.8,13,7.5c3.5,3.5,6,7.2,7.6,11.4
		c1.6,4.1,2.4,8.2,2.4,12.2V62h-32.9V49.3c0-3.4-1.2-6.4-3.6-9.1C710.4,37.6,707.4,36.4,704.1,36.5"/>
	<path class="st0" d="M833.2,139.4c-12.8-0.1-24.1-2.7-33.7-7.9c-9.7-5.3-17.3-12.8-22.7-22.6c-5.4-9.8-8.2-21.6-8.3-35.4
		c0.1-13.8,2.9-25.6,8.3-35.5c5.5-9.8,13-17.3,22.7-22.5c9.7-5.2,20.9-7.9,33.7-7.9c12.7,0,23.9,2.7,33.6,7.9
		c9.6,5.2,17.2,12.7,22.6,22.5c5.4,9.8,8.2,21.6,8.3,35.5c-0.1,13.8-2.9,25.6-8.3,35.4c-5.4,9.8-13,17.3-22.6,22.6
		C857.2,136.7,846,139.3,833.2,139.4 M864.8,73.5c0.2-11.4-1.9-20.7-6.3-28c-4.5-7.3-12.9-11-25.2-11.3c-12.4,0.3-20.9,4-25.4,11.3
		c-4.5,7.3-6.6,16.6-6.4,28c-0.2,11.4,1.9,20.7,6.4,28c4.5,7.3,13,11,25.4,11.3c12.4-0.2,20.8-4,25.2-11.3
		C862.9,94.2,865.1,84.8,864.8,73.5"/>
	<path class="st0" d="M989.8,36.5h-34.3v100.2h-33V9.9h73.6c7-0.1,13.4,0.7,18.9,2.4c5.6,1.7,10.7,5.1,15.4,10.1
		c3.7,3.9,6.5,7.9,8.2,12c1.7,4.1,2.6,8.8,2.5,14.2v88.1h-32.9V54.9c0.1-5.4-1.5-9.8-5-13.4C999.6,37.9,995.2,36.2,989.8,36.5"/>
	<rect x="1069.2" y="10.1" class="st1" width="32.9" height="126.8"/>
	<path class="st0" d="M1180,10.1h52v26.6h-47c-9.5,0.1-17,3.3-22.5,9.8c-5.5,6.4-8.3,15.4-8.4,27c0.1,11.5,2.9,20.4,8.4,26.9
		c5.5,6.5,13,9.8,22.5,9.9h47v26.6h-52c-19.2,0-34.2-5.5-44.8-16.2c-10.6-10.8-16-26.5-16.1-47.1c0.1-20.7,5.5-36.5,16.1-47.2
		C1145.8,15.6,1160.8,10.1,1180,10.1"/>
	<path class="st0" d="M316.1,91.4V10.1h33.2v72.5c0,5.3,0.3,9.9,1,13.8c0.7,3.9,2.1,7,4.2,9.2c3.7,3.4,8.3,5,13.9,4.7h12.5v26.6
		h-24.1c-1.8,0-4.4-0.1-7.8-0.5c-3.3-0.4-6.8-1.2-10.5-2.4c-3.7-1.2-7-3-9.9-5.5c-5.6-5.1-9.1-10.6-10.6-16.6
		C316.5,105.8,315.9,99,316.1,91.4"/>
</g>
<g>
	<path class="st1" d="M768.5,251v-41.5h21.3c5.5,0,9.5,1,12.2,3c2.7,2,4,4.6,4,7.9c0,2.1-0.6,4-1.7,5.6s-2.7,2.9-4.7,3.8
		c-2,0.9-4.5,1.4-7.3,1.4l1.2-2.8c2.9,0,5.5,0.4,7.7,1.3c2.2,0.9,3.9,2.2,5.1,3.9c1.2,1.7,1.8,3.7,1.8,6.1c0,3.6-1.5,6.4-4.4,8.4
		c-2.9,2-7.1,3-12.7,3H768.5L768.5,251z M780.1,242.5h9.9c2,0,3.6-0.4,4.6-1c1.1-0.7,1.6-1.7,1.6-3.2s-0.5-2.5-1.6-3.2
		c-1.1-0.7-2.6-1-4.6-1h-10.7v-8.1h8.9c2,0,3.5-0.3,4.4-1c1-0.7,1.5-1.7,1.5-3c0-1.3-0.5-2.4-1.5-3c-1-0.7-2.5-1-4.4-1h-8.1V242.5z"
		/>
	<path class="st1" d="M831.2,251v-41.5h19c3.8,0,7.1,0.6,9.8,1.8c2.8,1.2,4.9,3,6.4,5.3c1.5,2.3,2.3,5.1,2.3,8.2s-0.8,5.8-2.3,8.1
		c-1.5,2.3-3.6,4-6.4,5.2c-2.8,1.2-6,1.8-9.8,1.8h-12.5l5.2-4.9v16L831.2,251L831.2,251z M842.9,236.3l-5.2-5.4h11.8
		c2.4,0,4.3-0.5,5.5-1.6c1.2-1.1,1.8-2.6,1.8-4.4c0-1.9-0.6-3.4-1.8-4.5c-1.2-1.1-3-1.6-5.5-1.6h-11.8l5.2-5.4V236.3L842.9,236.3z
		 M856.9,251l-10.3-15.1h12.5l10.4,15.1H856.9z"/>
	<path class="st1" d="M887.1,251l18.3-41.5h11.6l18.4,41.5h-12.2l-14.4-35.8h4.6L899.1,251H887.1L887.1,251z M897.2,242.9l3-8.7
		h20.3l3,8.7H897.2L897.2,242.9z"/>
	<path class="st1" d="M963.7,251v-17.6l2.7,7.1l-18.6-31h12.4l13.4,22.5h-7.2l13.5-22.5h11.4l-18.5,31l2.6-7.1V251H963.7L963.7,251z
		"/>
	<path class="st1" d="M1045.7,251v-41.5h11.8V251H1045.7z"/>
	<path class="st1" d="M1082.8,251v-41.5h9.7l22.9,27.7h-4.6v-27.7h11.5V251h-9.7l-22.9-27.7h4.6V251H1082.8z"/>
	<path class="st1" d="M1156.5,251v-32.2h-12.8v-9.3h37.2v9.3h-12.7V251H1156.5L1156.5,251z"/>
	<path class="st1" d="M1202.4,251v-41.5h11.8v32.2h19.8v9.3H1202.4z"/>
</g>
</svg>
